<svg xmlns="http://www.w3.org/2000/svg" xmlns:xlink="http://www.w3.org/1999/xlink" width="500" zoomAndPan="magnify" viewBox="0 0 375 374.999991" height="500" preserveAspectRatio="xMidYMid meet" version="1.2"><defs/><g id="cf6aa36997"><g style="fill:#ffffff;fill-opacity:1;"><g transform="translate(42.341894, 294.999972)"><path style="stroke:none" d="M -2 -46.796875 C -4.664062 -44.128906 -7.332031 -43.863281 -10 -46 C -12.664062 -48.132812 -14.265625 -50.800781 -14.796875 -54 C -15.066406 -55.863281 -14.800781 -57.863281 -14 -60 C -13.195312 -62.132812 -12.53125 -64.132812 -12 -66 C -11.195312 -68.132812 -10.394531 -70.332031 -9.59375 -72.59375 C -8.800781 -74.863281 -7.867188 -76.929688 -6.796875 -78.796875 C -4.660156 -83.597656 -2.257812 -88.265625 0.40625 -92.796875 C 3.070312 -97.328125 5.738281 -101.726562 8.40625 -106 L 26.796875 -135.203125 C 28.398438 -137.867188 30 -140.398438 31.59375 -142.796875 C 33.195312 -145.203125 34.800781 -147.601562 36.40625 -150 C 37.46875 -151.601562 39 -153.40625 41 -155.40625 C 43 -157.40625 44.929688 -158.269531 46.796875 -158 C 47.328125 -158 47.726562 -157.929688 48 -157.796875 C 48.269531 -157.660156 48.535156 -157.59375 48.796875 -157.59375 L 54.796875 -154.796875 L 55.203125 -154.796875 C 55.460938 -154.535156 55.59375 -154.132812 55.59375 -153.59375 C 55.59375 -151.195312 54.660156 -148.53125 52.796875 -145.59375 C 51.992188 -144.257812 51.0625 -143.0625 50 -142 C 48.9375 -140.9375 48.132812 -139.738281 47.59375 -138.40625 C 47.0625 -137.070312 46.394531 -135.867188 45.59375 -134.796875 C 44.800781 -133.734375 44.132812 -132.535156 43.59375 -131.203125 C 43.332031 -130.671875 42.929688 -129.867188 42.390625 -128.796875 C 41.859375 -127.734375 41.726562 -126.9375 42 -126.40625 C 42.53125 -125.601562 43.460938 -125.46875 44.796875 -126 C 46.128906 -126.53125 47.0625 -126.929688 47.59375 -127.203125 C 56.132812 -131.460938 64.40625 -136.125 72.40625 -141.1875 C 80.40625 -146.257812 88.9375 -150.394531 98 -153.59375 C 101.46875 -154.925781 104.332031 -155.523438 106.59375 -155.390625 C 108.863281 -155.265625 111.332031 -154.132812 114 -152 L 114.796875 -151.203125 C 117.203125 -149.335938 119.203125 -147.269531 120.796875 -145 C 122.398438 -142.726562 122.535156 -139.992188 121.203125 -136.796875 C 117.460938 -128.535156 111.460938 -125.601562 103.203125 -128 C 101.066406 -128.53125 100.53125 -130.394531 101.59375 -133.59375 C 101.863281 -134.132812 102 -134.867188 102 -135.796875 C 102 -136.734375 102.132812 -137.601562 102.40625 -138.40625 C 102.40625 -138.664062 101.203125 -138.59375 98.796875 -138.1875 C 96.398438 -137.789062 95.066406 -137.460938 94.796875 -137.203125 C 92.929688 -136.929688 91.265625 -136.460938 89.796875 -135.796875 C 88.328125 -135.128906 86.660156 -134.53125 84.796875 -134 C 81.328125 -132.394531 77.726562 -130.859375 74 -129.390625 C 70.269531 -127.929688 66.671875 -126.132812 63.203125 -124 C 58.398438 -121.0625 54.863281 -119.0625 52.59375 -118 C 50.332031 -116.9375 48.066406 -115.671875 45.796875 -114.203125 C 43.535156 -112.734375 39.601562 -109.863281 34 -105.59375 L 31.59375 -103.203125 C 27.0625 -98.128906 23.394531 -93.191406 20.59375 -88.390625 C 17.800781 -83.597656 15.070312 -77.867188 12.40625 -71.203125 C 10.800781 -67.734375 9.066406 -64.460938 7.203125 -61.390625 C 5.335938 -58.328125 3.46875 -55.0625 1.59375 -51.59375 C 1.0625 -50.800781 0.53125 -49.9375 0 -49 C -0.53125 -48.0625 -1.195312 -47.328125 -2 -46.796875 Z M -2 -46.796875 "/></g></g><g style="fill:#ffffff;fill-opacity:1;"><g transform="translate(153.140985, 294.999972)"><path style="stroke:none" d="M 10 -43.203125 C 7.863281 -41.867188 5.597656 -42.132812 3.203125 -44 C -5.867188 -51.46875 -8.9375 -61.066406 -6 -72.796875 C -4.9375 -76.265625 -3.800781 -79.734375 -2.59375 -83.203125 C -1.394531 -86.671875 0.132812 -90.003906 2 -93.203125 C 8.9375 -104.929688 16.671875 -115.925781 25.203125 -126.1875 C 33.734375 -136.457031 43.332031 -145.726562 54 -154 C 56.132812 -155.601562 58.398438 -157.070312 60.796875 -158.40625 C 63.203125 -159.738281 65.601562 -160.9375 68 -162 C 75.726562 -165.46875 83.125 -164.929688 90.1875 -160.390625 C 97.257812 -155.859375 100.929688 -149.328125 101.203125 -140.796875 C 101.203125 -139.734375 101.203125 -138.734375 101.203125 -137.796875 C 101.203125 -136.867188 101.332031 -135.867188 101.59375 -134.796875 C 102.132812 -132.128906 101.9375 -129.726562 101 -127.59375 C 100.0625 -125.46875 98.796875 -123.335938 97.203125 -121.203125 C 94.796875 -117.460938 92.726562 -113.660156 91 -109.796875 C 89.269531 -105.929688 87.335938 -102.132812 85.203125 -98.40625 L 71.59375 -72.796875 C 71.332031 -71.734375 70.734375 -70.332031 69.796875 -68.59375 C 68.867188 -66.863281 68.535156 -65.332031 68.796875 -64 C 69.328125 -62.664062 70.328125 -62.664062 71.796875 -64 C 73.265625 -65.332031 74.265625 -66.265625 74.796875 -66.796875 C 80.128906 -71.597656 85.660156 -76 91.390625 -80 C 97.128906 -84 102.929688 -87.863281 108.796875 -91.59375 L 138.796875 -111.203125 C 141.734375 -113.066406 144.597656 -115 147.390625 -117 C 150.191406 -119 153.0625 -120.800781 156 -122.40625 C 157.332031 -123.195312 158.929688 -124.125 160.796875 -125.1875 C 162.660156 -126.257812 163.992188 -126.53125 164.796875 -126 C 167.734375 -124.394531 168.535156 -121.726562 167.203125 -118 C 165.867188 -114.269531 163.734375 -111.335938 160.796875 -109.203125 C 160.535156 -108.929688 158.132812 -107.128906 153.59375 -103.796875 C 149.0625 -100.460938 143.660156 -96.59375 137.390625 -92.1875 C 131.128906 -87.789062 125 -83.457031 119 -79.1875 C 113 -74.925781 108.132812 -71.597656 104.40625 -69.203125 C 99.601562 -65.734375 94.929688 -62.332031 90.390625 -59 C 85.859375 -55.664062 81.328125 -52.398438 76.796875 -49.203125 C 74.398438 -47.335938 71.601562 -46.003906 68.40625 -45.203125 C 63.332031 -43.597656 59.726562 -45.332031 57.59375 -50.40625 C 56.53125 -52.800781 55.734375 -54.929688 55.203125 -56.796875 C 54.671875 -58.660156 54.800781 -61.863281 55.59375 -66.40625 C 56.132812 -71.195312 57.335938 -75.789062 59.203125 -80.1875 C 61.066406 -84.59375 61.734375 -86.796875 61.203125 -86.796875 C 60.128906 -86.796875 57.789062 -85.195312 54.1875 -82 C 50.59375 -78.800781 46.53125 -75.066406 42 -70.796875 C 37.46875 -66.535156 33.066406 -62.40625 28.796875 -58.40625 C 24.535156 -54.40625 21.335938 -51.335938 19.203125 -49.203125 C 17.867188 -48.128906 16.332031 -47.125 14.59375 -46.1875 C 12.863281 -45.257812 11.332031 -44.265625 10 -43.203125 Z M 10.796875 -65.59375 C 12.398438 -65.863281 13.867188 -66.53125 15.203125 -67.59375 C 16.265625 -67.863281 17.195312 -68.664062 18 -70 C 21.726562 -73.195312 25.394531 -76.460938 29 -79.796875 C 32.601562 -83.128906 36.269531 -86.394531 40 -89.59375 C 46.132812 -94.394531 51.800781 -99.53125 57 -105 C 62.195312 -110.46875 67.332031 -116 72.40625 -121.59375 C 76.664062 -126.132812 80.53125 -130.800781 84 -135.59375 C 86.132812 -138.53125 87.398438 -141.398438 87.796875 -144.203125 C 88.203125 -147.003906 87.601562 -149.070312 86 -150.40625 C 83.601562 -152.269531 81.269531 -152.800781 79 -152 C 76.726562 -151.195312 74.53125 -150.128906 72.40625 -148.796875 C 68.132812 -146.128906 64.066406 -143.257812 60.203125 -140.1875 C 56.335938 -137.125 52.535156 -133.992188 48.796875 -130.796875 C 42.929688 -125.734375 37.53125 -120 32.59375 -113.59375 C 27.664062 -107.195312 22.9375 -100.664062 18.40625 -94 C 15.738281 -90.53125 13.738281 -86.660156 12.40625 -82.390625 C 11.070312 -78.128906 10.132812 -73.597656 9.59375 -68.796875 Z M 10.796875 -65.59375 "/></g></g><g style="fill:#ffffff;fill-opacity:1;"><g transform="translate(289.939934, 294.999972)"><path style="stroke:none" d="M 19.59375 -46.796875 C 17.46875 -44.929688 15.132812 -44.597656 12.59375 -45.796875 C 10.0625 -46.992188 7.332031 -49.0625 4.40625 -52 C 2.800781 -53.332031 1.664062 -55.128906 1 -57.390625 C 0.332031 -59.660156 0 -61.863281 0 -64 C 0.53125 -69.601562 2.59375 -72.738281 6.1875 -73.40625 C 9.789062 -74.070312 13.59375 -73.269531 17.59375 -71 C 21.59375 -68.726562 24.257812 -65.59375 25.59375 -61.59375 C 26.132812 -58.132812 25.867188 -55.335938 24.796875 -53.203125 C 23.734375 -51.066406 22 -48.929688 19.59375 -46.796875 Z M 19.59375 -46.796875 "/></g></g></g></svg>